# xmcd
#
# Track frame offsets: 
#        150
#        14795
#        31614
#        49155
#        65356
#        83788
#        99968
#        119094
#        133472
#        149374
#        164710
#        180995
#        195071
#
# Disc length: 2788 seconds
#
# Revision: 0
# Processed by: cddbd v1.5.1PL2 Copyright (c) Steve Scherf et al.
# Submitted via: ExactAudioCopy v0.95b2
#
DISCID=b20ae20d
DTITLE=Билан Дима - Время Река
DYEAR=2006
DGENRE=Pop
TTITLE0=Я Тебя Помню
TTITLE1=Это Была Любовь
TTITLE2=Время Река
TTITLE3=Не Оставляй Меня
TTITLE4=Спасибо Тебя
TTITLE5=Где-То
TTITLE6=Стань Для Меня
TTITLE7=Невозможное Возможно (Русская Версия Lady Flame)
TTITLE8=Я Умираю От Любви
TTITLE9=Ветер С Моря
TTITLE10=Не Скучай, Бедный Ангел
TTITLE11=Так Устроен Этот Мир (Русская Версия Never Let You Go)
TTITLE12=Never Let You Go
EXTD=
EXTT0=
EXTT1=
EXTT2=
EXTT3=
EXTT4=
EXTT5=
EXTT6=
EXTT7=
EXTT8=
EXTT9=
EXTT10=
EXTT11=
EXTT12=
PLAYORDER=
